<svg width="60" height="51" viewBox="0 0 60 51" fill="none" xmlns="http://www.w3.org/2000/svg">
<path d="M27.1809 50.9498C27.1622 50.924 26.8094 50.8962 26.3971 50.888C25.9847 50.8796 25.2547 50.8173 24.7749 50.7493C20.5702 50.1538 16.3204 48.8577 13.4889 47.3073C12.9657 47.0207 12.8461 46.9101 12.9321 46.7919C12.9947 46.706 13.2026 46.7496 14.4143 47.1032C14.9941 47.2724 15.8939 47.4891 16.4137 47.5849C17.2932 47.7468 17.4726 47.7589 18.9948 47.759C21.2785 47.759 22.0607 47.6491 24.5484 46.9786C29.2868 45.7016 30.4723 45.696 35.1793 46.9278C37.8827 47.6352 38.946 47.7916 41.0505 47.791C42.5817 47.7907 44.0207 47.5613 45.7505 47.0417C46.2103 46.9037 46.6727 46.7769 46.7779 46.7602C46.9836 46.7275 47.0835 46.8013 47.0209 46.9397C46.9254 47.1512 44.5079 48.2985 43.0241 48.8366C40.1304 49.8858 35.643 50.8574 33.5718 50.8831C33.1513 50.8884 32.7889 50.9178 32.7665 50.9487C32.717 51.0164 27.2301 51.0174 27.1809 50.9498ZM16.3409 45.9623C12.5739 45.4897 9.30804 44.0414 6.5237 41.6089C5.00699 40.2838 3.88666 38.9104 2.75711 36.991C1.27915 34.4798 0.226076 31.2408 0.0455478 28.6502C-0.0161067 27.7661 -0.014798 22.8526 0.04722 22.0125C0.173655 20.3005 0.910019 17.7867 1.92325 15.6078C2.312 14.7717 3.34297 12.9492 3.83642 12.2258C3.98692 12.005 4.14775 11.7688 4.19385 11.7009C5.18751 10.2341 7.09669 8.17738 8.78347 6.75642C10.3124 5.46847 11.7774 4.46244 13.5417 3.48908C14.0815 3.19128 14.605 2.90021 14.705 2.84223C15.0745 2.62797 17.3128 1.66473 18.1307 1.36792C19.9436 0.710016 22.0153 0.133309 22.6325 0.114786C22.8342 0.108673 23.0161 0.0803932 23.0369 0.0518666C23.0576 0.02334 23.2457 0 23.4548 0C23.7763 0 23.8365 0.0180915 23.8453 0.117502C23.8538 0.213456 23.7395 0.265569 23.2246 0.400916C21.068 0.967559 18.592 1.96939 16.2042 3.24166C14.4102 4.19749 12.3072 5.69254 10.5681 7.24841C6.11284 11.2345 3.52037 16.0284 2.73151 21.7406C2.57774 22.8542 2.55746 25.8095 2.69654 26.8594C3.54967 33.3035 6.82746 38.411 11.6878 40.8699C13.5021 41.7879 15.4951 42.2734 17.7223 42.3401C19.5274 42.394 20.6818 42.1926 23.9467 41.2544C27.0168 40.3721 27.8481 40.1855 29.1928 40.0774C30.0903 40.0051 31.1528 40.0706 32.1942 40.2622C32.8148 40.3764 35.4005 41.0616 36.8075 41.4849C38.9725 42.1361 40.5767 42.3893 42.2241 42.3401C44.9235 42.2593 47.286 41.5609 49.4339 40.2084C53.6459 37.5561 56.49 32.6974 57.2477 26.8596C57.3711 25.9091 57.3722 23.0218 57.2495 22.0434C56.7085 17.7272 55.2103 14.0663 52.6128 10.7131C50.0636 7.42217 46.4511 4.52801 42.4422 2.5648C40.7999 1.76062 38.3112 0.819554 36.7166 0.39999C36.2121 0.267236 36.0805 0.208578 36.0805 0.116329C36.0805 0.0182151 36.1364 0.000123492 36.4396 0.000123492C36.6372 0.000123492 36.8155 0.023093 36.836 0.0511874C36.8564 0.07922 37.0589 0.108611 37.2859 0.116391C38.3045 0.151401 41.5517 1.17749 43.763 2.16314C50.8293 5.31287 55.9943 10.4591 58.5982 16.9446C59.2764 18.6337 59.8357 20.8128 59.8595 21.8581C59.8669 22.1819 59.9096 22.4846 59.9549 22.5337C60.0191 22.6034 60.0156 22.6119 59.9388 22.5726C59.8592 22.5319 59.8563 22.5473 59.9234 22.6537C60.0243 22.8138 59.9855 27.3501 59.8703 28.8662C59.784 30.0034 59.5495 31.1398 59.0933 32.6327C57.5673 37.6264 54.404 41.604 50.1126 43.9251C48.5839 44.752 46.3338 45.5256 44.581 45.8271C43.8475 45.9533 43.5433 45.9699 41.9696 45.9699C39.5962 45.9699 38.4446 45.8035 35.2079 44.9927C31.8053 44.1404 31.3616 44.0615 29.9731 44.0615C28.5844 44.0615 28.1397 44.1406 24.7383 44.9928C21.6163 45.775 20.5238 45.9396 18.2675 45.9682C17.3278 45.98 16.4608 45.9774 16.3409 45.9623ZM16.5954 40.2612C15.1403 40.1262 13.9619 39.828 12.5602 39.2403C10.6644 38.4454 9.06746 37.1996 7.69143 35.4422C7.04071 34.6111 6.4691 33.7234 6.51687 33.6179C6.59539 33.4441 6.8716 33.5296 7.28733 33.8564C8.196 34.5708 10.2789 35.8744 10.5118 35.8744C10.5525 35.8744 10.6374 35.914 10.7005 35.962C10.8557 36.0803 12.0699 36.5295 12.742 36.7172C14.0902 37.0937 15.8305 37.2671 17.2861 37.1697C18.9945 37.0555 20.2113 36.811 22.121 36.1985C25.1308 35.2333 26.7375 34.8966 28.9783 34.7617C30.6464 34.6612 32.603 34.8215 34.3719 35.2035C35.227 35.3882 36.1761 35.6524 37.6074 36.1041C39.1577 36.5935 40.0205 36.8138 41.0322 36.9789C44.4239 37.5322 47.5417 37.0229 50.3309 35.4598C51.176 34.9862 52.3921 34.171 52.8358 33.7809C53.1323 33.5201 53.4259 33.4489 53.503 33.6194C53.5778 33.7849 52.4918 35.341 51.649 36.2757C51.1851 36.7904 50.1748 37.674 49.5674 38.0964C48.0995 39.1172 46.212 39.8556 44.2599 40.1726C43.3573 40.3192 41.1923 40.3205 40.1884 40.1751C39.0751 40.0139 37.9092 39.7321 36.5895 39.3056C33.6604 38.3589 32.1823 38.0841 30.0096 38.0824C29.075 38.0817 28.5555 38.1135 27.8793 38.2125C26.2664 38.449 25.629 38.6102 22.8706 39.4806C21.8655 39.7978 20.8728 40.0236 19.8661 40.1641C19.0321 40.2806 17.3435 40.3307 16.5954 40.2612Z" fill="white"/>
<path d="M24.9209 30.1817L17.4323 14.9793C16.9007 13.9328 16.3691 13.2076 15.8375 12.8036C15.3059 12.3997 14.6934 12.161 14 12.0876V11.5368C14.0925 11.5368 14.3236 11.5276 14.6934 11.5092C15.0401 11.4909 15.2943 11.4817 15.4561 11.4817C16.2651 11.4817 17.0971 11.5551 17.9523 11.702C18.8075 11.8305 19.6165 12.1427 20.3792 12.6384C21.1419 13.1341 21.7891 13.9144 22.3207 14.9793L27.0011 24.4808L30.1213 17.4304L28.9079 14.9793C28.3763 13.9328 27.7985 13.2076 27.1744 12.8036C26.5735 12.3997 25.9263 12.161 25.2329 12.0876V11.5368C25.3254 11.5368 25.5334 11.5276 25.857 11.5092C26.1806 11.4909 26.4233 11.4817 26.585 11.4817C27.394 11.4817 28.2261 11.5551 29.0813 11.702C29.9364 11.8489 30.7454 12.1702 31.5081 12.6659C32.2709 13.1433 32.918 13.9144 33.4496 14.9793L38.4074 25.0041L44.3359 11.7571H46L37.7833 30.1817H36.3965L31.0574 19.3858L26.3077 30.1817H24.9209Z" fill="white"/>
</svg>
